<?xml version="1.0" encoding="UTF-8"?>
<svg id="Layer_2" data-name="Layer 2" xmlns="http://www.w3.org/2000/svg" viewBox="0 0 523 523">
  <defs>
    <style>
      .cls-1, .cls-2 {
        stroke-width: 0px;
      }

      .cls-2 {
        fill: #fff;
      }
    </style>
  </defs>
  <g id="Layer_1-2" data-name="Layer 1">
    <g>
      <rect class="cls-1" width="523" height="523" rx="69.33" ry="69.33"/>
      <g id="SVGRepo_iconCarrier" data-name="SVGRepo iconCarrier">
        <path class="cls-2" d="m441.27,234.26c-31.14-67.9-117.95-81.9-138.42-100.57-8.64-7.9-17.4-14.25-26.96-17.57-.19,1.13-.33,2.26-.33,3.42,0,2.66.5,5.46,1.54,8.43,1.04,2.97,2.63,6.09,4.72,9.3,4.19,6.4,10.43,13.05,17.94,19.35,15.02,12.64,35.04,23.95,53.19,31.19,4.02,1.61,5.98,6.16,4.38,10.18-1.62,4.02-6.18,5.97-10.19,4.37-12.89-5.16-26.4-12.04-38.9-20.12-12.5-8.09-23.97-17.34-32.74-27.46-5.83-6.75-10.47-13.92-13.17-21.61-1.55-4.4-2.44-8.96-2.44-13.63,0-1.97.17-3.94.5-5.92-2.75.06-5.43.36-8.05.9-.54,3.84-.84,7.83-.84,11.97,0,13.39,2.82,28.07,7.82,42.21,4.99,14.15,12.13,27.76,20.52,39.07,2.58,3.49,1.85,8.39-1.62,10.97-3.48,2.57-8.39,1.85-10.96-1.64-9.43-12.71-17.21-27.6-22.72-43.19-5.23-14.84-8.35-30.29-8.65-45.17-4.75,5.87-9.04,11.88-12.73,17.96-10.88,17.87-16.83,36.25-16.81,53.2,0,.92.02,1.82.05,2.73.16,4.32-3.21,7.96-7.53,8.12-4.32.17-7.96-3.21-8.13-7.53-.04-1.1-.06-2.2-.06-3.32.01-19.74,6.54-39.83,17.62-58.85-31.56,16.5-102.29,36.49-127.07,93.21-26.86,61.52-4.51,129.99,77.52,160.29,27.34,10.09,61.36,15.45,102.5,15.45s75.16-5.36,102.5-15.45c82.02-30.3,105.48-99.28,77.51-160.29Z"/>
      </g>
    </g>
  </g>
</svg>
